<?xml version="1.0" encoding="UTF-8"?>
<!DOCTYPE svg PUBLIC "-//W3C//DTD SVG 1.1//EN" "http://www.w3.org/Graphics/SVG/1.1/DTD/svg11.dtd">
<!-- Creator: CorelDRAW X7 -->
<svg xmlns="http://www.w3.org/2000/svg" xml:space="preserve" width="100px" height="100px" version="1.1" style="shape-rendering:geometricPrecision; text-rendering:geometricPrecision; image-rendering:optimizeQuality; fill-rule:evenodd; clip-rule:evenodd"
viewBox="0 0 100 100"
 xmlns:xlink="http://www.w3.org/1999/xlink">
 <defs>
  <style type="text/css">
   <![CDATA[
    .str0 {stroke:#201E1E;stroke-width:8.33274;stroke-dasharray:16.665486 8.332743}
    .fil1 {fill:none}
    .fil0 {fill:#980000}
   ]]>
  </style>
 </defs>
 <g id="Layer_x0020_1">
  <metadata id="CorelCorpID_0Corel-Layer"/>
  <path class="fil0" d="M57 32l3 0 0 37 -3 0 0 -37zm-16 37l-7 0c-1,0 -2,0 -2,-1l0 -40c0,0 1,-1 1,-1l7 0c1,0 1,1 1,1 0,5 0,40 0,41zm-17 -1c0,-5 0,-26 1,-29 2,0 6,0 6,1l0 28c0,2 -4,1 -6,1 0,0 -1,0 -1,-1zm29 1l-9 0c0,0 0,0 0,-1l0 -51c-3,0 -10,3 -12,5 -3,2 -4,3 -6,5 -12,12 -12,31 -2,44 0,0 1,1 2,1l48 0c2,0 5,-5 6,-6 1,-3 2,-6 3,-9 1,-7 0,-12 -2,-18 0,-1 0,-2 -1,-3 0,1 0,1 0,2l-8 27c0,1 -1,3 -1,4 -2,0 -7,-2 -10,-2 0,-1 1,-4 1,-5 1,-1 1,-3 2,-4l5 -19c1,-3 2,-6 3,-9 2,0 4,0 5,1 -8,-13 -21,-13 -23,-14l0 49c0,2 1,3 -1,3z"/>
  <path class="fil0" d="M50 84c5,0 11,-2 15,-4l2 -1 -34 0c1,0 2,1 3,2 2,0 3,1 4,1 3,1 7,2 10,2z"/>
  <circle class="fil1 str0" cx="50" cy="50" r="45">
      <animateTransform attributeName="transform"
            attributeType="XML"
            type="rotate"
            from="0 50 50"
            to="360 50 50"
            dur="40s"
            repeatCount="indefinite"/>
      
      
     </circle>
 </g>
</svg>
